<svg xmlns="http://www.w3.org/2000/svg" xmlns:xlink="http://www.w3.org/1999/xlink" viewBox="0 0 595.28 841.89"><defs><style>.cls-1,.cls-2,.cls-4{fill:none;}.cls-2{stroke:#c6361b;}.cls-2,.cls-4{stroke-linecap:round;stroke-linejoin:round;stroke-width:9.19px;}.cls-3{fill:#c64531;}.cls-4{stroke:#c64532;}.cls-5{fill:url(#Pegasus);}</style><pattern id="Pegasus" data-name="Pegasus" width="441.71" height="441.71" patternTransform="translate(885.66 -104.34) scale(0.5)" patternUnits="userSpaceOnUse" viewBox="0 0 441.71 441.71"><rect class="cls-1" width="441.71" height="441.71"/><path class="cls-2" d="M68.4,94.8V53a2.35,2.35,0,0,1,2-2.36c10.83-1.24,33.74-.57,33.74-23.06,0-29.9-41.12-22.11-98.69-22.11"/><path class="cls-2" d="M181.78,435V393.2a2.36,2.36,0,0,1,2.06-2.36c10.82-1.24,33.73-.57,33.73-23.07,0-29.89-41.11-22.1-98.68-22.1"/><circle class="cls-3" cx="391" cy="49.7" r="19.08"/><circle class="cls-3" cx="275.62" cy="163.08" r="19.08"/><circle class="cls-3" cx="52.85" cy="163.38" r="19.08"/><circle class="cls-3" cx="168.23" cy="276.47" r="19.08"/><circle class="cls-3" cx="391" cy="276.47" r="19.08"/><circle class="cls-3" cx="275.62" cy="389.86" r="19.08"/><circle class="cls-3" cx="52.85" cy="389.86" r="19.08"/><circle class="cls-3" cx="168.23" cy="49.7" r="19.08"/><path class="cls-4" d="M188.11,208.22s1.56-42.15,7.11-45.14c32.86-17.69,36.91-80.82-74.24-15.81"/><path class="cls-4" d="M301.5,94.54s1.56-42.15,7.11-45.13c32.85-17.7,36.9-80.82-74.25-15.82"/><path class="cls-4" d="M295.86,320.52s8.31-41,14.35-45.81c21.87-17.36,24.62-92.27-69.8,12"/><path class="cls-4" d="M409.25,207.14s8.31-41,14.35-45.81c21.87-17.37,24.62-92.27-69.8,11.95"/><path class="cls-4" d="M62.57,312.81s42.66-67.57,20-82.23-62,93.15-62,93.15"/><path class="cls-4" d="M402.73,426.19s42.65-67.56,20-82.22-62,93.14-62,93.14"/></pattern></defs><title>CMYK-Neg-SVG</title><g id="Laag_2" data-name="Laag 2"><g id="Patroon"><rect class="cls-5" width="595.28" height="841.89"/></g></g></svg>