<svg xmlns="http://www.w3.org/2000/svg" viewBox="0 0 679.41 244.51"><defs><style>.cls-1,.cls-2{fill:#c6361b;}.cls-1{stroke:#c6361b;stroke-miterlimit:10;}</style></defs><title>CMYK-SVG</title><g id="Laag_2" data-name="Laag 2"><g id="Laag_1-2" data-name="Laag 1"><path class="cls-1" d="M243.44,117.71a4.65,4.65,0,0,1-1.25,3.24,5.2,5.2,0,0,1-4,1.36H180.57q.42,15.45,8.15,22.34a27.28,27.28,0,0,0,18.8,7.31q11.28,0,24-8.35a5.63,5.63,0,0,1,3.44-1.25,3.47,3.47,0,0,1,2.82,1.25,3.9,3.9,0,0,1,1,2.51,5.63,5.63,0,0,1-1.68,4.17q-12.31,11.49-30.7,11.49-17.13,0-27.78-11.07Q167,138.8,167,120.22q0-17.34,9.81-29,10.66-12.75,28.41-12.75,18.59,0,28.61,11.28Q243,100.18,243.44,117.71ZM230.7,114q-.84-11.7-7.1-18.59t-18.17-6.89A21.89,21.89,0,0,0,188.3,96,29.78,29.78,0,0,0,181,114Z"/><path class="cls-1" d="M291.9,78.44q20.25,0,29,16.09V85.75a5.36,5.36,0,0,1,2-4.07A6.54,6.54,0,0,1,327,80.32a6.62,6.62,0,0,1,4.18,1.47A5.2,5.2,0,0,1,333,86.17v75.61q0,24.22-22.35,30.28a52.64,52.64,0,0,1-14,1.88,72.32,72.32,0,0,1-11.49-.73,47.84,47.84,0,0,1-7.93-2,26.42,26.42,0,0,1-10.87-7.1,5,5,0,0,1-1.67-3.55,4.39,4.39,0,0,1,1.36-3.24,4.16,4.16,0,0,1,3-1.36,9.41,9.41,0,0,1,3.34.63q2.29,1.24,4.49,2.51a35.61,35.61,0,0,0,4.91,2.29,36.33,36.33,0,0,0,12,1.88,53.1,53.1,0,0,0,11.28-1,22.89,22.89,0,0,0,8-3.34q7.1-5,7.1-16.09V144.44q-6.06,11.49-19.22,14.83a38.17,38.17,0,0,1-7.93.84q-17.76,0-27.15-11.91-8.36-10.65-8.36-27.57,0-28.6,19-38.63A31.19,31.19,0,0,1,291.9,78.44Zm3.34,10q-23.61,0-23.6,31.54,0,15,7.31,23.39a20.19,20.19,0,0,0,16.29,7.52A22.36,22.36,0,0,0,312.57,143q7.73-8.34,7.73-22.55,0-21.51-13.16-29.24A23.88,23.88,0,0,0,295.24,88.47Z"/><path class="cls-1" d="M394.44,111.44l9.19.21v-6.89q0-16.29-18.38-16.29-8.56,0-12.32,1.46a64.94,64.94,0,0,0-8.35,3.87q-4,2.19-5.75,2.19a4.28,4.28,0,0,1-3.13-1.36,4.34,4.34,0,0,1,.31-6.58q10-9.6,29.66-9.61,21.93,0,28.2,15a30.45,30.45,0,0,1,2.3,12.33L416,154.47a4.92,4.92,0,0,1-1.88,4.28,7.43,7.43,0,0,1-8.57,0,4.69,4.69,0,0,1-1.88-4.07v-7.52q-5,10.65-18.17,13.78a46,46,0,0,1-9.08.84,32.9,32.9,0,0,1-9.92-1.57,25.24,25.24,0,0,1-8.78-4.7q-7.94-6.25-7.93-17.54Q349.75,111.45,394.44,111.44Zm9.19,9.61q-3.56.21-8,.21c-3,0-6,.07-9,.21a61.45,61.45,0,0,0-8.77,1,29.78,29.78,0,0,0-7.62,2.51q-7.53,4.19-7.52,12.53a13.25,13.25,0,0,0,5.22,10.86q4.17,3.14,12.11,3.55a23.35,23.35,0,0,0,16.29-6.05q6.9-6.06,7.31-17.76Z"/><path class="cls-1" d="M469.21,88.47Q451,88.47,451,100q0,5,5,7.93,3.75,1.89,15.45,4.7t17.75,4.7a20.16,20.16,0,0,1,10,6.9,18.46,18.46,0,0,1,4,11.8,22.42,22.42,0,0,1-2.93,11.69,23.63,23.63,0,0,1-7.93,8q-9.4,6.06-24.44,6.06A57.28,57.28,0,0,1,446.87,158a27.73,27.73,0,0,1-7.11-4.18c-1.81-1.53-2.71-3-2.71-4.28a4.4,4.4,0,0,1,1.46-3.34,4.79,4.79,0,0,1,3.34-1.36,10.89,10.89,0,0,1,4.39,1.15q2.5,1.16,6.06,2.4Q461.9,152,468,152a43.64,43.64,0,0,0,9.61-.83,20.57,20.57,0,0,0,6.47-2.72q6.27-4,6.27-10.86,0-7.94-11.07-11.69a64.9,64.9,0,0,0-9-2.41q-4.81-.93-9.4-2a74.17,74.17,0,0,1-8.67-2.51,27.89,27.89,0,0,1-7.41-4q-6.9-5-6.9-14.42,0-11.47,9.82-17.33,8.15-4.8,21.93-4.81,13.37,0,21.72,4.39,6.9,3.56,6.9,7.52a3.73,3.73,0,0,1-1.47,2.92,4.49,4.49,0,0,1-2.92,1.26,8.07,8.07,0,0,1-4.49-1.15,33.28,33.28,0,0,0-3.76-2.09,24.31,24.31,0,0,0-4.49-1.57A48.32,48.32,0,0,0,469.21,88.47Z"/><path class="cls-1" d="M591.4,154.05a5.23,5.23,0,0,1-2.09,4.6,6.91,6.91,0,0,1-3.86,1.46,11.32,11.32,0,0,1-2.93-.31,5.87,5.87,0,0,1-2-.94,6,6,0,0,1-2.09-4.6V147q-5,10.86-18.59,14a43.6,43.6,0,0,1-9,.84,32.61,32.61,0,0,1-10.13-1.67,23.7,23.7,0,0,1-9.09-5.43q-8.56-8.35-8.56-24V86.38a5.32,5.32,0,0,1,2-4.59,7.61,7.61,0,0,1,9,0,5.32,5.32,0,0,1,2,4.59V131.5q0,11.48,4.39,15.87,4.59,4.59,14,4.59,15.87,0,21.72-12.74a31.69,31.69,0,0,0,2.3-10.23V86.38a5.26,5.26,0,0,1,2.09-4.49A7.35,7.35,0,0,1,585,80.32a7.18,7.18,0,0,1,4.38,1.47,5.3,5.3,0,0,1,2,4.59Z"/><path class="cls-1" d="M644.86,88.47q-18.17,0-18.17,11.49,0,5,5,7.93,3.75,1.89,15.45,4.7t17.75,4.7a20.16,20.16,0,0,1,10,6.9,18.46,18.46,0,0,1,4,11.8A22.42,22.42,0,0,1,676,147.68a23.63,23.63,0,0,1-7.93,8q-9.4,6.06-24.44,6.06A57.28,57.28,0,0,1,622.52,158a27.73,27.73,0,0,1-7.11-4.18c-1.81-1.53-2.71-3-2.71-4.28a4.37,4.37,0,0,1,1.46-3.34,4.79,4.79,0,0,1,3.34-1.36,10.89,10.89,0,0,1,4.39,1.15q2.5,1.16,6.06,2.4,9.6,3.56,15.66,3.55a43.64,43.64,0,0,0,9.61-.83,20.57,20.57,0,0,0,6.47-2.72q6.27-4,6.27-10.86,0-7.94-11.07-11.69a64.9,64.9,0,0,0-9-2.41q-4.81-.93-9.4-2a74.17,74.17,0,0,1-8.67-2.51,27.89,27.89,0,0,1-7.41-4q-6.9-5-6.9-14.42,0-11.47,9.82-17.33,8.14-4.8,21.93-4.81,13.37,0,21.72,4.39,6.9,3.56,6.89,7.52a3.71,3.71,0,0,1-1.46,2.92,4.49,4.49,0,0,1-2.92,1.26A8.07,8.07,0,0,1,665,93.38a33.28,33.28,0,0,0-3.76-2.09,24.31,24.31,0,0,0-4.49-1.57A48.32,48.32,0,0,0,644.86,88.47Z"/><path class="cls-2" d="M113.49,162.86a7.5,7.5,0,0,1-7.5-7.5V86.91A11.37,11.37,0,0,1,116.13,75.6c2-.23,4.22-.41,6.56-.61,23.87-2,43.63-5.61,43.63-29.75,0-8-2-13.66-6.43-17.93C145.66,13.44,107,14.42,58,15.67c-16,.41-32.62.83-50.5.83a7.5,7.5,0,0,1,0-15c17.69,0,34.18-.42,50.12-.83,54.56-1.39,94-2.39,112.74,15.9,7.27,7.08,11,16.73,11,28.67,0,17.45-7.45,29.94-22.12,37.11C147.75,88,134,89.1,123.94,89.94l-3,.25v65.17A7.49,7.49,0,0,1,113.49,162.86Z"/><path class="cls-1" d="M357.67,243.33a2.57,2.57,0,0,1-2.63-1.7,2.37,2.37,0,0,1-.25-1.1V199.48a2.58,2.58,0,0,1,1.78-2.63,3.52,3.52,0,0,1,1.1-.17h11.11q18.57,0,23.41,13.32a29.56,29.56,0,0,1,1.61,10.14,27.84,27.84,0,0,1-1.66,10,18.12,18.12,0,0,1-4.87,7.21q-6.54,5.94-18.32,5.94Zm2.88-4.58h9q9.25,0,13.83-5.09,4.23-4.57,4.24-13.65,0-9.33-5.26-14.17-4.83-4.58-14.33-4.58h-7.47Z"/><path class="cls-1" d="M404.31,199.48a2.61,2.61,0,0,1,.6-1.78,3.35,3.35,0,0,1,2.29-1h14.08q11.19,0,15,6.11a10.84,10.84,0,0,1,1.52,6.11,9,9,0,0,1-2.5,6.44,13.48,13.48,0,0,1-7.08,3.65v.17c3,.45,5.12,1.56,6.36,3.31a14.06,14.06,0,0,1,1.87,5.85q.93,7.89,1.18,12.13a2.62,2.62,0,0,1-.88,2.16,3.11,3.11,0,0,1-2,.72,3.49,3.49,0,0,1-2-.64,2.39,2.39,0,0,1-1-2q-.42-4-.68-7c-.17-2-.37-3.71-.59-5.13a16,16,0,0,0-.89-3.43,4.9,4.9,0,0,0-1.57-2.08c-1.3-.9-3.59-1.36-6.87-1.36h-11v18.92a2.42,2.42,0,0,1-1.78,2.54,5.26,5.26,0,0,1-1.4.17,2.83,2.83,0,0,1-1.69-.68,2.38,2.38,0,0,1-.9-2Zm14.34,17.64q8.31,0,11-2.62a6.9,6.9,0,0,0,2-5.35c0-3.33-1.22-5.57-3.65-6.7a17.77,17.77,0,0,0-7.29-1.19H410.08v15.86Z"/><path class="cls-1" d="M447.23,220.18a31,31,0,0,1,1.44-9.5,21.64,21.64,0,0,1,4.24-7.72q5.94-6.69,16.29-6.7t16.28,6.7a22.44,22.44,0,0,1,4.15,7.72,31.85,31.85,0,0,1,0,19,22.39,22.39,0,0,1-4.15,7.71Q479.63,244,469.2,244t-16.29-6.62a21.59,21.59,0,0,1-4.24-7.71A31,31,0,0,1,447.23,220.18Zm7.17-7a27.62,27.62,0,0,0,0,13.91,18,18,0,0,0,2.8,6.24,14.6,14.6,0,0,0,4.87,4.32,16.21,16.21,0,0,0,14.25,0,15.07,15.07,0,0,0,4.92-4.32,17.34,17.34,0,0,0,2.8-6.24,29.21,29.21,0,0,0,0-13.91,17.72,17.72,0,0,0-2.8-6.27,14.54,14.54,0,0,0-4.92-4.33,16.57,16.57,0,0,0-14.25,0A14.1,14.1,0,0,0,457.2,207,18.46,18.46,0,0,0,454.4,213.22Z"/><path class="cls-1" d="M501.17,200.5A3.33,3.33,0,0,1,502,198a3.86,3.86,0,0,1,2.62-1.36,4.68,4.68,0,0,1,3.74,1.87l24.76,37.32V199.31a2.38,2.38,0,0,1,1.7-2.46,3.3,3.3,0,0,1,1-.17,3.24,3.24,0,0,1,1,.17,2.33,2.33,0,0,1,.85.51,2.36,2.36,0,0,1,.85,1.95v40.12a3.48,3.48,0,0,1-2.37,3.65,5.09,5.09,0,0,1-1.62.25,4.11,4.11,0,0,1-3.47-1.87l-24.43-36.8v36.13a1.89,1.89,0,0,1-.68,1.61,3.09,3.09,0,0,1-2.08.93,3,3,0,0,1-1.9-.64,2.21,2.21,0,0,1-.85-1.9Z"/><path class="cls-1" d="M558.46,234.13a13,13,0,0,0,5.25,3.86,20.55,20.55,0,0,0,7.85,1.35,43.27,43.27,0,0,0,10.35-1.44V223.65h-9.25A2,2,0,0,1,571,223a2.38,2.38,0,0,1-.55-1.53,2.51,2.51,0,0,1,.51-1.53,2,2,0,0,1,1.69-.68h12.55a2.4,2.4,0,0,1,1.83.68,2.53,2.53,0,0,1,.63,1.78v17.14a2.72,2.72,0,0,1-2.2,2.88,45.54,45.54,0,0,1-13.4,2.29,32.24,32.24,0,0,1-10.18-1.4,18,18,0,0,1-7.12-4.37q-6.36-6.36-6.36-18.23a24.89,24.89,0,0,1,5.68-16.54q6.18-7.22,17.38-7.21a35.19,35.19,0,0,1,13.07,2.38,1.75,1.75,0,0,1,1.27,1.69,3.31,3.31,0,0,1-.55,1.95,1.76,1.76,0,0,1-1.49.77h-.25a5.4,5.4,0,0,1-1-.26c-.54-.17-1.3-.35-2.29-.55s-2-.35-2.92-.47a37.77,37.77,0,0,0-5.6-.51q-8.75,0-13.23,5.77a17,17,0,0,0-3,6.19,29.16,29.16,0,0,0-.93,7.38,29.53,29.53,0,0,0,.93,7.42A16.1,16.1,0,0,0,558.46,234.13Z"/><path class="cls-1" d="M602.77,243.33a2.77,2.77,0,0,1-2.63-1.78,2.26,2.26,0,0,1-.25-1V199.48a2.61,2.61,0,0,1,1.61-2.54,2.41,2.41,0,0,1,1.1-.26H627a2.19,2.19,0,0,1,1.78.73,2.6,2.6,0,0,1,0,3.3,2.18,2.18,0,0,1-1.78.72H605.57V217h20.35a2.3,2.3,0,0,1,1.87.73,2.48,2.48,0,0,1,.59,1.61,2.55,2.55,0,0,1-.63,1.65,2.26,2.26,0,0,1-1.83.76H605.57v16.88h22.3a2.33,2.33,0,0,1,1.83.72,2.44,2.44,0,0,1,.63,1.66,2.55,2.55,0,0,1-.59,1.65,2.29,2.29,0,0,1-1.87.72Z"/><path class="cls-1" d="M640.26,200.5a3.37,3.37,0,0,1,.84-2.46,3.88,3.88,0,0,1,2.63-1.36,4.66,4.66,0,0,1,3.73,1.87l24.77,37.32V199.31a2.37,2.37,0,0,1,1.7-2.46,3.2,3.2,0,0,1,1-.17,3.3,3.3,0,0,1,1,.17,2.33,2.33,0,0,1,.85.51,2.39,2.39,0,0,1,.85,1.95v40.12a3.48,3.48,0,0,1-2.38,3.65,5,5,0,0,1-1.61.25,4.14,4.14,0,0,1-3.48-1.87l-24.42-36.8v36.13a1.89,1.89,0,0,1-.68,1.61,3,3,0,0,1-4,.29,2.23,2.23,0,0,1-.84-1.9Z"/></g></g></svg>