<svg xmlns="http://www.w3.org/2000/svg" viewBox="0 0 577.66 518.87"><defs><style>.cls-1{fill:#e22a13;}</style></defs><title>RGP-OR-SVG</title><g id="Laag_2" data-name="Laag 2"><g id="Laag_1-2" data-name="Laag 1"><path class="cls-1" d="M361.59,518.87A23.9,23.9,0,0,1,337.69,495V276.89a36.26,36.26,0,0,1,32.3-36c6.43-.72,13.45-1.3,20.89-1.92,76-6.36,139-17.89,139-94.8,0-25.35-6.5-43.5-20.47-57.12C464.07,42.81,340.83,46,184.78,49.92c-51.08,1.3-103.91,2.65-160.89,2.65a23.9,23.9,0,0,1,0-47.79c56.37,0,108.89-1.34,159.68-2.63C357.41-2.28,483-5.47,542.76,52.78c23.16,22.58,34.9,53.31,34.9,91.34,0,55.6-23.71,95.38-70.47,118.25-36.46,17.82-80.31,21.49-112.33,24.17-3.23.27-6.37.53-9.38.8V495A23.9,23.9,0,0,1,361.59,518.87Z"/></g></g></svg>