<svg xmlns="http://www.w3.org/2000/svg" viewBox="0 0 769.85 355.15"><defs><style>.cls-1,.cls-2{fill:#353c43;}.cls-1{stroke:#353c43;}.cls-1,.cls-4{stroke-miterlimit:10;}.cls-3{fill:#192c38;}.cls-4,.cls-5{fill:#fff;}.cls-4{stroke:#fff;}</style></defs><title>RGB-SVG_3</title><g id="Laag_2" data-name="Laag 2"><g id="Laag_1-2" data-name="Laag 1"><path class="cls-1" d="M284.81,173.28a4.62,4.62,0,0,1-1.26,3.24,5.17,5.17,0,0,1-4,1.35H221.94q.42,15.47,8.15,22.35a27.26,27.26,0,0,0,18.79,7.31q11.28,0,24-8.35a5.66,5.66,0,0,1,3.45-1.25,3.47,3.47,0,0,1,2.82,1.25,3.94,3.94,0,0,1,1,2.5,5.67,5.67,0,0,1-1.67,4.18q-12.33,11.49-30.7,11.49-17.13,0-27.78-11.07-11.7-11.91-11.7-30.49,0-17.34,9.82-29Q228.83,134,246.59,134q18.59,0,28.61,11.28Q284.4,155.75,284.81,173.28Zm-12.74-3.76q-.84-11.7-7.1-18.59T246.79,144a21.87,21.87,0,0,0-17.12,7.52,29.72,29.72,0,0,0-7.31,18Z"/><path class="cls-1" d="M333.26,134q20.26,0,29,16.09v-8.78a5.36,5.36,0,0,1,2-4.07,6.54,6.54,0,0,1,4.07-1.36,6.62,6.62,0,0,1,4.18,1.47,5.2,5.2,0,0,1,1.88,4.38v75.61q0,24.22-22.35,30.28a52.7,52.7,0,0,1-14,1.88,72.23,72.23,0,0,1-11.49-.73,48.22,48.22,0,0,1-7.94-2,26.44,26.44,0,0,1-10.86-7.1,5,5,0,0,1-1.67-3.55,4.39,4.39,0,0,1,1.36-3.24,4.16,4.16,0,0,1,3-1.36,9.45,9.45,0,0,1,3.34.63c1.53.83,3,1.67,4.49,2.5a35.61,35.61,0,0,0,4.91,2.3,36.33,36.33,0,0,0,12,1.88,53.24,53.24,0,0,0,11.28-1,22.89,22.89,0,0,0,8-3.34q7.1-5,7.1-16.09V200q-6.06,11.49-19.22,14.83a38.17,38.17,0,0,1-7.93.84q-17.76,0-27.16-11.91Q299,193.12,299,176.2q0-28.6,19-38.64A31.26,31.26,0,0,1,333.26,134Zm3.34,10Q313,144,313,175.58q0,15,7.31,23.39a20.22,20.22,0,0,0,16.29,7.52,22.42,22.42,0,0,0,17.34-7.94q7.72-8.36,7.73-22.56,0-21.5-13.16-29.24A24,24,0,0,0,336.6,144Z"/><path class="cls-1" d="M435.81,167l9.19.21v-6.89Q445,144,426.62,144q-8.56,0-12.32,1.46a66.41,66.41,0,0,0-8.36,3.86c-2.64,1.47-4.56,2.2-5.74,2.2a4.28,4.28,0,0,1-3.13-1.36,4.39,4.39,0,0,1-1.36-3.24,4.34,4.34,0,0,1,1.67-3.34Q407.4,134,427,134q21.93,0,28.2,15a30.44,30.44,0,0,1,2.29,12.32L457.32,210a4.9,4.9,0,0,1-1.88,4.28,7.41,7.41,0,0,1-8.56,0,4.69,4.69,0,0,1-1.88-4.07v-7.52q-5,10.65-18.17,13.78a46.22,46.22,0,0,1-9.09.84,33,33,0,0,1-9.92-1.57,25.29,25.29,0,0,1-8.77-4.7q-7.94-6.26-7.93-17.54Q391.12,167,435.81,167Zm9.19,9.61q-3.56.21-8,.21t-9,.21a61.27,61.27,0,0,0-8.77,1,30,30,0,0,0-7.63,2.51q-7.51,4.18-7.52,12.53A13.23,13.23,0,0,0,409.29,204q4.17,3.14,12.11,3.55a23.39,23.39,0,0,0,16.29-6.05q6.9-6.06,7.31-17.76Z"/><path class="cls-1" d="M510.58,144q-18.16,0-18.17,11.49,0,5,5,7.93,3.76,1.89,15.46,4.7t17.75,4.7a20.14,20.14,0,0,1,10,6.89,18.5,18.5,0,0,1,4,11.8,22.43,22.43,0,0,1-2.92,11.7,23.66,23.66,0,0,1-7.94,8q-9.39,6.06-24.43,6.06a57.37,57.37,0,0,1-21.1-3.76,27.83,27.83,0,0,1-7.1-4.18c-1.81-1.53-2.71-2.95-2.71-4.28a4.37,4.37,0,0,1,1.46-3.34,4.75,4.75,0,0,1,3.34-1.36,10.93,10.93,0,0,1,4.39,1.15c1.67.77,3.68,1.57,6.05,2.4q9.61,3.56,15.67,3.55a43.64,43.64,0,0,0,9.61-.83,20.57,20.57,0,0,0,6.47-2.72q6.27-4,6.27-10.86,0-7.94-11.07-11.69a64.67,64.67,0,0,0-9-2.41q-4.8-.93-9.39-2a73.61,73.61,0,0,1-8.67-2.51,27.7,27.7,0,0,1-7.42-4q-6.88-5-6.89-14.41,0-11.47,9.82-17.33Q497.22,134,511,134q13.37,0,21.72,4.39,6.9,3.56,6.89,7.52a3.76,3.76,0,0,1-1.46,2.92,4.51,4.51,0,0,1-2.92,1.26,8.13,8.13,0,0,1-4.49-1.15,33.28,33.28,0,0,0-3.76-2.09,24.31,24.31,0,0,0-4.49-1.57A48.38,48.38,0,0,0,510.58,144Z"/><path class="cls-1" d="M632.76,209.62a5.23,5.23,0,0,1-2.08,4.6,7,7,0,0,1-3.87,1.46,11.74,11.74,0,0,1-2.92-.31,5.3,5.3,0,0,1-4.07-5.54v-7.31q-5,10.86-18.59,14a43.6,43.6,0,0,1-9,.84,32.56,32.56,0,0,1-10.13-1.67,23.75,23.75,0,0,1-9.09-5.43q-8.56-8.35-8.56-24V142a5.32,5.32,0,0,1,2-4.59,7.59,7.59,0,0,1,9,0,5.32,5.32,0,0,1,2,4.59v45.11q0,11.49,4.38,15.88,4.59,4.59,14,4.59,15.87,0,21.72-12.74a32,32,0,0,0,2.3-10.23V142a5.27,5.27,0,0,1,2.08-4.49,7.37,7.37,0,0,1,4.49-1.57,7.23,7.23,0,0,1,4.39,1.47,5.32,5.32,0,0,1,2,4.59Z"/><path class="cls-1" d="M686.23,144q-18.16,0-18.17,11.49,0,5,5,7.93,3.76,1.89,15.46,4.7t17.75,4.7a20.14,20.14,0,0,1,10,6.89,18.5,18.5,0,0,1,4,11.8,22.43,22.43,0,0,1-2.92,11.7,23.66,23.66,0,0,1-7.94,8Q700,217.35,685,217.35a57.37,57.37,0,0,1-21.1-3.76,27.83,27.83,0,0,1-7.1-4.18c-1.81-1.53-2.71-2.95-2.71-4.28a4.37,4.37,0,0,1,1.46-3.34,4.75,4.75,0,0,1,3.34-1.36,11,11,0,0,1,4.39,1.15c1.67.77,3.68,1.57,6,2.4q9.62,3.56,15.67,3.55a43.54,43.54,0,0,0,9.6-.83,20.52,20.52,0,0,0,6.48-2.72q6.27-4,6.27-10.86,0-7.94-11.07-11.69a64.67,64.67,0,0,0-9-2.41q-4.8-.93-9.39-2a73.61,73.61,0,0,1-8.67-2.51,27.7,27.7,0,0,1-7.42-4q-6.88-5-6.89-14.41,0-11.47,9.82-17.33,8.14-4.8,21.93-4.81,13.36,0,21.72,4.39,6.89,3.56,6.89,7.52a3.76,3.76,0,0,1-1.46,2.92,4.51,4.51,0,0,1-2.92,1.26,8.13,8.13,0,0,1-4.49-1.15,33.28,33.28,0,0,0-3.76-2.09,24.31,24.31,0,0,0-4.49-1.57A48.38,48.38,0,0,0,686.23,144Z"/><path class="cls-2" d="M154.86,218.43a7.5,7.5,0,0,1-7.5-7.5V142.48a11.39,11.39,0,0,1,10.14-11.32c2-.22,4.22-.4,6.56-.6,23.86-2,43.62-5.61,43.62-29.75,0-8-2-13.66-6.42-17.93C187,69,148.35,70,99.37,71.24c-16,.41-32.62.83-50.5.83a7.5,7.5,0,0,1,0-15c17.69,0,34.17-.42,50.12-.83,54.56-1.39,94-2.39,112.74,15.9,7.27,7.08,11,16.73,11,28.67,0,17.45-7.44,29.93-22.12,37.11-11.44,5.6-25.2,6.75-35.25,7.59l-2.95.25v65.17A7.5,7.5,0,0,1,154.86,218.43Z"/><path class="cls-1" d="M399,298.9a2.58,2.58,0,0,1-2.63-1.7,2.41,2.41,0,0,1-.26-1.1V255.05a2.59,2.59,0,0,1,1.78-2.63,3.59,3.59,0,0,1,1.11-.17h11.11q18.57,0,23.4,13.32a29.29,29.29,0,0,1,1.62,10.13,27.86,27.86,0,0,1-1.66,10.05,18.14,18.14,0,0,1-4.88,7.21q-6.53,5.94-18.31,5.94Zm2.88-4.58h9q9.24,0,13.82-5.09,4.25-4.58,4.24-13.65,0-9.33-5.25-14.17-4.85-4.57-14.34-4.58h-7.46Z"/><path class="cls-1" d="M445.68,255.05a2.59,2.59,0,0,1,.6-1.78,3.33,3.33,0,0,1,2.29-1h14.07q11.21,0,15,6.11a10.92,10.92,0,0,1,1.52,6.11,9,9,0,0,1-2.5,6.44,13.59,13.59,0,0,1-7.08,3.65v.17c3,.45,5.11,1.55,6.36,3.31a14.06,14.06,0,0,1,1.87,5.85q.93,7.89,1.18,12.13a2.62,2.62,0,0,1-.89,2.16,3.08,3.08,0,0,1-2,.72,3.5,3.5,0,0,1-2-.64,2.4,2.4,0,0,1-1-2c-.29-2.66-.51-5-.68-7s-.37-3.71-.6-5.13a14.8,14.8,0,0,0-.89-3.43,4.9,4.9,0,0,0-1.57-2.08c-1.3-.9-3.59-1.36-6.87-1.36h-11v18.92a2.43,2.43,0,0,1-1.78,2.54,5.31,5.31,0,0,1-1.4.17,2.88,2.88,0,0,1-1.7-.68,2.4,2.4,0,0,1-.89-2ZM460,272.69q8.3,0,11-2.63a6.86,6.86,0,0,0,2-5.34c0-3.33-1.22-5.57-3.65-6.7a17.82,17.82,0,0,0-7.3-1.19H451.45v15.86Z"/><path class="cls-1" d="M488.6,275.75a31,31,0,0,1,1.44-9.5,21.64,21.64,0,0,1,4.24-7.72q5.94-6.7,16.28-6.7t16.29,6.7a22.61,22.61,0,0,1,4.15,7.72,32.06,32.06,0,0,1,0,19,22.66,22.66,0,0,1-4.15,7.71q-5.85,6.62-16.29,6.62T494.28,293a21.68,21.68,0,0,1-4.24-7.71A31,31,0,0,1,488.6,275.75Zm7.16-7a27.62,27.62,0,0,0,0,13.91,18.29,18.29,0,0,0,2.8,6.23,14.66,14.66,0,0,0,4.88,4.33,16.21,16.21,0,0,0,14.25,0,15.3,15.3,0,0,0,4.92-4.33,17,17,0,0,0,2.79-6.23,28.88,28.88,0,0,0,0-13.91,17.53,17.53,0,0,0-2.79-6.27,15.62,15.62,0,0,0-19.17-4.33,14.14,14.14,0,0,0-4.88,4.33A18.85,18.85,0,0,0,495.76,268.79Z"/><path class="cls-1" d="M542.54,256.07a3.37,3.37,0,0,1,.84-2.46,3.88,3.88,0,0,1,2.63-1.36,4.66,4.66,0,0,1,3.73,1.87l24.77,37.32V254.88a2.37,2.37,0,0,1,1.69-2.46,3.14,3.14,0,0,1,2,0,2.33,2.33,0,0,1,.85.51,2.39,2.39,0,0,1,.85,1.95V295a3.48,3.48,0,0,1-2.38,3.64,5,5,0,0,1-1.61.26,4.14,4.14,0,0,1-3.48-1.87l-24.42-36.8v36.13a1.89,1.89,0,0,1-.68,1.61,3,3,0,0,1-4,.29,2.23,2.23,0,0,1-.84-1.9Z"/><path class="cls-1" d="M599.82,289.7a12.92,12.92,0,0,0,5.26,3.86,20.51,20.51,0,0,0,7.85,1.35,43.13,43.13,0,0,0,10.34-1.44V279.22H614a2,2,0,0,1-1.66-.68,2.39,2.39,0,0,1-.55-1.52,2.49,2.49,0,0,1,.51-1.53,2,2,0,0,1,1.7-.68h12.55a2.38,2.38,0,0,1,1.82.68,2.49,2.49,0,0,1,.64,1.78V294.4a2.73,2.73,0,0,1-2.2,2.89,45.87,45.87,0,0,1-13.4,2.29,32.24,32.24,0,0,1-10.18-1.4,18.06,18.06,0,0,1-7.13-4.37q-6.36-6.36-6.36-18.23A24.94,24.94,0,0,1,595.45,259q6.19-7.22,17.39-7.21a35.3,35.3,0,0,1,13.06,2.37,1.76,1.76,0,0,1,1.28,1.7,3.24,3.24,0,0,1-.56,2,1.72,1.72,0,0,1-1.48.76h-.26a5.16,5.16,0,0,1-1-.25c-.54-.17-1.3-.35-2.29-.55s-2-.35-2.93-.47a37.66,37.66,0,0,0-5.59-.51q-8.75,0-13.23,5.77a17,17,0,0,0-3,6.19,29.16,29.16,0,0,0-.94,7.38,29.59,29.59,0,0,0,.94,7.42A16.08,16.08,0,0,0,599.82,289.7Z"/><path class="cls-1" d="M644.14,298.9a2.76,2.76,0,0,1-2.63-1.78,2.27,2.27,0,0,1-.26-1V255.05a2.62,2.62,0,0,1,1.62-2.54,2.38,2.38,0,0,1,1.1-.26h24.42a2.2,2.2,0,0,1,1.78.72,2.55,2.55,0,0,1,.6,1.66,2.5,2.5,0,0,1-.6,1.65,2.17,2.17,0,0,1-1.78.72H646.94v15.52h20.35a2.29,2.29,0,0,1,1.87.72,2.48,2.48,0,0,1,0,3.27,2.22,2.22,0,0,1-1.82.76H646.94v16.88h22.3a2.29,2.29,0,0,1,1.82.72,2.4,2.4,0,0,1,.64,1.65,2.56,2.56,0,0,1-.59,1.66,2.29,2.29,0,0,1-1.87.72Z"/><path class="cls-1" d="M681.62,256.07a3.33,3.33,0,0,1,.85-2.46,3.86,3.86,0,0,1,2.63-1.36,4.67,4.67,0,0,1,3.73,1.87l24.77,37.32V254.88a2.37,2.37,0,0,1,1.69-2.46,3.15,3.15,0,0,1,2,0,2.33,2.33,0,0,1,.85.51,2.38,2.38,0,0,1,.84,1.95V295a3.47,3.47,0,0,1-2.37,3.64,5.08,5.08,0,0,1-1.61.26,4.11,4.11,0,0,1-3.48-1.87l-24.43-36.8v36.13a1.89,1.89,0,0,1-.67,1.61,3,3,0,0,1-4,.29,2.21,2.21,0,0,1-.85-1.9Z"/><rect class="cls-3" width="769.85" height="355.15"/><path class="cls-4" d="M284.91,173.28a4.61,4.61,0,0,1-1.25,3.24,5.19,5.19,0,0,1-4,1.35H222.05q.4,15.47,8.14,22.35a27.28,27.28,0,0,0,18.8,7.31q11.28,0,24-8.35a5.63,5.63,0,0,1,3.44-1.25,3.45,3.45,0,0,1,2.82,1.25,3.9,3.9,0,0,1,1.05,2.5,5.67,5.67,0,0,1-1.67,4.18q-12.33,11.49-30.7,11.49-17.13,0-27.78-11.07-11.7-11.91-11.7-30.49,0-17.34,9.82-29Q228.94,134,246.69,134q18.58,0,28.62,11.28Q284.49,155.75,284.91,173.28Zm-12.74-3.76q-.84-11.7-7.1-18.59T246.9,144a21.91,21.91,0,0,0-17.13,7.52,29.84,29.84,0,0,0-7.31,18Z"/><path class="cls-4" d="M333.37,134q20.25,0,29,16.09v-8.78a5.39,5.39,0,0,1,2-4.07,6.72,6.72,0,0,1,8.25.11,5.18,5.18,0,0,1,1.88,4.38v75.61q0,24.22-22.34,30.28a52.77,52.77,0,0,1-14,1.88,72.4,72.4,0,0,1-11.49-.73,47.84,47.84,0,0,1-7.93-2,26.31,26.31,0,0,1-10.86-7.1,5,5,0,0,1-1.67-3.55,4.42,4.42,0,0,1,1.35-3.24,4.2,4.2,0,0,1,3-1.36,9.36,9.36,0,0,1,3.34.63c1.53.83,3,1.67,4.49,2.5a31.23,31.23,0,0,0,16.92,4.18,53.1,53.1,0,0,0,11.28-1,22.89,22.89,0,0,0,8-3.34q7.09-5,7.1-16.09V200q-6.06,11.49-19.21,14.83a38.33,38.33,0,0,1-7.94.84q-17.75,0-27.15-11.91-8.36-10.65-8.35-27.57,0-28.6,19-38.64A31.33,31.33,0,0,1,333.37,134Zm3.34,10q-23.61,0-23.6,31.54,0,15,7.31,23.39a20.22,20.22,0,0,0,16.29,7.52,22.42,22.42,0,0,0,17.34-7.94q7.72-8.36,7.72-22.56,0-21.5-13.15-29.24A24.06,24.06,0,0,0,336.71,144Z"/><path class="cls-4" d="M435.92,167l9.19.21v-6.89q0-16.29-18.38-16.29-8.57,0-12.33,1.46a66.27,66.27,0,0,0-8.35,3.86q-4,2.2-5.74,2.2a4.3,4.3,0,0,1-3.14-1.36,4.42,4.42,0,0,1-1.35-3.24,4.34,4.34,0,0,1,1.67-3.34q10-9.6,29.65-9.61,21.93,0,28.2,15a30.43,30.43,0,0,1,2.3,12.32L457.43,210a4.92,4.92,0,0,1-1.88,4.28,7.41,7.41,0,0,1-8.56,0,4.67,4.67,0,0,1-1.88-4.07v-7.52q-5,10.65-18.17,13.78a46.22,46.22,0,0,1-9.09.84,33,33,0,0,1-9.92-1.57,25.2,25.2,0,0,1-8.77-4.7q-7.95-6.26-7.94-17.54Q391.22,167,435.92,167Zm9.19,9.61q-3.56.21-8,.21c-3,0-6,.07-9,.21a61.45,61.45,0,0,0-8.77,1,29.91,29.91,0,0,0-7.62,2.51q-7.51,4.18-7.52,12.53A13.25,13.25,0,0,0,409.39,204c2.79,2.09,6.82,3.28,12.12,3.55a23.39,23.39,0,0,0,16.29-6.05q6.88-6.06,7.31-17.76Z"/><path class="cls-4" d="M510.69,144q-18.18,0-18.17,11.49,0,5,5,7.93,3.77,1.89,15.45,4.7t17.76,4.7a20.11,20.11,0,0,1,10,6.89,18.45,18.45,0,0,1,4,11.8,22.43,22.43,0,0,1-2.92,11.7,23.75,23.75,0,0,1-7.94,8q-9.4,6.06-24.44,6.06a57.28,57.28,0,0,1-21.09-3.76,27.66,27.66,0,0,1-7.1-4.18c-1.81-1.53-2.72-2.95-2.72-4.28a4.4,4.4,0,0,1,1.46-3.34,4.77,4.77,0,0,1,3.35-1.36,10.89,10.89,0,0,1,4.38,1.15q2.51,1.15,6.06,2.4,9.6,3.56,15.66,3.55a43.64,43.64,0,0,0,9.61-.83,20.62,20.62,0,0,0,6.48-2.72q6.26-4,6.26-10.86,0-7.94-11.07-11.69a64.52,64.52,0,0,0-9-2.41c-3.2-.62-6.34-1.28-9.4-2a74.74,74.74,0,0,1-8.67-2.51,27.79,27.79,0,0,1-7.41-4q-6.88-5-6.89-14.41,0-11.47,9.81-17.33,8.15-4.8,21.93-4.81,13.36,0,21.73,4.39,6.88,3.56,6.89,7.52a3.76,3.76,0,0,1-1.46,2.92,4.53,4.53,0,0,1-2.93,1.26,8.15,8.15,0,0,1-4.49-1.15,32.43,32.43,0,0,0-3.76-2.09,24.06,24.06,0,0,0-4.49-1.57A48.23,48.23,0,0,0,510.69,144Z"/><path class="cls-4" d="M632.87,209.62a5.24,5.24,0,0,1-2.09,4.6,6.91,6.91,0,0,1-3.86,1.46,11.83,11.83,0,0,1-2.93-.31,5.33,5.33,0,0,1-4.07-5.54v-7.31q-5,10.86-18.59,14a43.53,43.53,0,0,1-9,.84,32.61,32.61,0,0,1-10.13-1.67,23.79,23.79,0,0,1-9.08-5.43q-8.57-8.35-8.57-24V142a5.3,5.3,0,0,1,2-4.59,7.59,7.59,0,0,1,9,0,5.32,5.32,0,0,1,2,4.59v45.11q0,11.49,4.39,15.88,4.59,4.59,14,4.59,15.87,0,21.72-12.74a31.43,31.43,0,0,0,2.3-10.23V142a5.28,5.28,0,0,1,2.09-4.49,7.37,7.37,0,0,1,4.49-1.57,7.23,7.23,0,0,1,4.39,1.47,5.32,5.32,0,0,1,2,4.59Z"/><path class="cls-4" d="M686.34,144q-18.18,0-18.17,11.49,0,5,5,7.93,3.75,1.89,15.45,4.7t17.76,4.7a20.11,20.11,0,0,1,10,6.89,18.45,18.45,0,0,1,4,11.8,22.52,22.52,0,0,1-2.92,11.7,23.75,23.75,0,0,1-7.94,8q-9.4,6.06-24.44,6.06A57.28,57.28,0,0,1,664,213.59a27.49,27.49,0,0,1-7.1-4.18c-1.81-1.53-2.72-2.95-2.72-4.28a4.4,4.4,0,0,1,1.46-3.34,4.77,4.77,0,0,1,3.35-1.36,10.89,10.89,0,0,1,4.38,1.15q2.5,1.15,6.06,2.4,9.6,3.56,15.66,3.55a43.64,43.64,0,0,0,9.61-.83,20.62,20.62,0,0,0,6.48-2.72q6.26-4,6.26-10.86,0-7.94-11.07-11.69a64.9,64.9,0,0,0-9-2.41c-3.2-.62-6.34-1.28-9.4-2a74.74,74.74,0,0,1-8.67-2.51,27.79,27.79,0,0,1-7.41-4q-6.9-5-6.89-14.41,0-11.47,9.81-17.33Q673,134,686.75,134q13.37,0,21.73,4.39,6.88,3.56,6.89,7.52a3.76,3.76,0,0,1-1.46,2.92A4.53,4.53,0,0,1,711,150.1a8.15,8.15,0,0,1-4.49-1.15,32.43,32.43,0,0,0-3.76-2.09,24.06,24.06,0,0,0-4.49-1.57A48.23,48.23,0,0,0,686.34,144Z"/><path class="cls-5" d="M155,218.43a7.5,7.5,0,0,1-7.5-7.5V142.48a11.39,11.39,0,0,1,10.14-11.32c2-.22,4.22-.4,6.55-.6,23.87-2,43.63-5.61,43.63-29.75,0-8-2-13.66-6.43-17.93C187.14,69,148.45,70,99.47,71.24c-16,.41-32.61.83-50.5.83a7.5,7.5,0,0,1,0-15c17.69,0,34.18-.42,50.12-.83,54.57-1.39,94-2.39,112.74,15.9,7.27,7.08,11,16.73,11,28.67,0,17.45-7.44,29.93-22.12,37.11-11.44,5.6-25.21,6.75-35.26,7.59-1,.08-2,.16-2.94.25v65.17A7.5,7.5,0,0,1,155,218.43Z"/><path class="cls-4" d="M399.14,298.9a2.59,2.59,0,0,1-2.63-1.7,2.4,2.4,0,0,1-.25-1.1V255.05a2.58,2.58,0,0,1,1.78-2.63,3.57,3.57,0,0,1,1.1-.17h11.11q18.57,0,23.41,13.32a29.54,29.54,0,0,1,1.61,10.13,28.08,28.08,0,0,1-1.65,10.05,18.14,18.14,0,0,1-4.88,7.21q-6.53,5.94-18.32,5.94Zm2.89-4.58h9q9.24,0,13.82-5.09,4.25-4.58,4.24-13.65,0-9.33-5.26-14.17-4.83-4.57-14.33-4.58H402Z"/><path class="cls-4" d="M445.79,255.05a2.59,2.59,0,0,1,.59-1.78,3.37,3.37,0,0,1,2.29-1h14.08q11.19,0,15,6.11a10.84,10.84,0,0,1,1.53,6.11,9,9,0,0,1-2.5,6.44,13.59,13.59,0,0,1-7.08,3.65v.17q4.49.67,6.35,3.31a13.78,13.78,0,0,1,1.87,5.85q.93,7.89,1.19,12.13a2.62,2.62,0,0,1-.89,2.16,3.11,3.11,0,0,1-2,.72,3.49,3.49,0,0,1-2-.64,2.44,2.44,0,0,1-1-2q-.42-4-.68-7c-.17-2-.37-3.71-.59-5.13a15.32,15.32,0,0,0-.89-3.43,4.9,4.9,0,0,0-1.57-2.08c-1.3-.9-3.59-1.36-6.87-1.36h-11v18.92a2.43,2.43,0,0,1-1.78,2.54,5.18,5.18,0,0,1-1.39.17,2.85,2.85,0,0,1-1.7-.68,2.37,2.37,0,0,1-.89-2Zm14.33,17.64q8.31,0,11-2.63a6.89,6.89,0,0,0,2-5.34c0-3.33-1.21-5.57-3.64-6.7a17.82,17.82,0,0,0-7.3-1.19H451.55v15.86Z"/><path class="cls-4" d="M488.7,275.75a31,31,0,0,1,1.44-9.5,22,22,0,0,1,4.24-7.72q5.94-6.7,16.29-6.7t16.28,6.7a22.63,22.63,0,0,1,4.16,7.72,32.06,32.06,0,0,1,0,19A22.67,22.67,0,0,1,527,293q-5.85,6.62-16.28,6.62T494.38,293a22,22,0,0,1-4.24-7.71A31,31,0,0,1,488.7,275.75Zm7.17-7a27.62,27.62,0,0,0,0,13.91,17.92,17.92,0,0,0,2.8,6.23,14.63,14.63,0,0,0,4.87,4.33,16.21,16.21,0,0,0,14.25,0,15.1,15.1,0,0,0,4.92-4.33,17.21,17.21,0,0,0,2.8-6.23,28.88,28.88,0,0,0,0-13.91,17.72,17.72,0,0,0-2.8-6.27,14.54,14.54,0,0,0-4.92-4.33,16.57,16.57,0,0,0-14.25,0,14.1,14.1,0,0,0-4.87,4.33A18.46,18.46,0,0,0,495.87,268.79Z"/><path class="cls-4" d="M542.64,256.07a3.33,3.33,0,0,1,.85-2.46,3.86,3.86,0,0,1,2.63-1.36,4.67,4.67,0,0,1,3.73,1.87l24.76,37.32V254.88a2.38,2.38,0,0,1,1.7-2.46,3.14,3.14,0,0,1,2,0,2.2,2.2,0,0,1,.84.51,2.36,2.36,0,0,1,.85,1.95V295a3.47,3.47,0,0,1-2.37,3.64,5.08,5.08,0,0,1-1.61.26,4.11,4.11,0,0,1-3.48-1.87l-24.43-36.8v36.13a1.87,1.87,0,0,1-.68,1.61,2.94,2.94,0,0,1-4,.29,2.21,2.21,0,0,1-.85-1.9Z"/><path class="cls-4" d="M599.93,289.7a12.92,12.92,0,0,0,5.26,3.86,20.46,20.46,0,0,0,7.84,1.35,43.2,43.2,0,0,0,10.35-1.44V279.22h-9.25a2,2,0,0,1-1.65-.68,2.33,2.33,0,0,1-.55-1.52,2.49,2.49,0,0,1,.51-1.53,2,2,0,0,1,1.69-.68h12.56a2.38,2.38,0,0,1,1.82.68,2.54,2.54,0,0,1,.64,1.78V294.4a2.73,2.73,0,0,1-2.21,2.89,45.87,45.87,0,0,1-13.4,2.29,32.28,32.28,0,0,1-10.18-1.4,18,18,0,0,1-7.12-4.37q-6.36-6.36-6.36-18.23A24.89,24.89,0,0,1,595.56,259q6.2-7.22,17.39-7.21A35.37,35.37,0,0,1,626,254.2a1.75,1.75,0,0,1,1.27,1.7,3.24,3.24,0,0,1-.55,2,1.74,1.74,0,0,1-1.49.76H625a5,5,0,0,1-1-.25,23.48,23.48,0,0,0-2.3-.55c-1-.2-2-.35-2.92-.47a37.77,37.77,0,0,0-5.6-.51q-8.73,0-13.23,5.77a17.29,17.29,0,0,0-3,6.19,29.16,29.16,0,0,0-.93,7.38,29.58,29.58,0,0,0,.93,7.42A16.24,16.24,0,0,0,599.93,289.7Z"/><path class="cls-4" d="M644.24,298.9a2.77,2.77,0,0,1-2.63-1.78,2.26,2.26,0,0,1-.25-1V255.05a2.62,2.62,0,0,1,1.61-2.54,2.44,2.44,0,0,1,1.1-.26H668.5a2.21,2.21,0,0,1,1.78.72,2.59,2.59,0,0,1,.59,1.66,2.55,2.55,0,0,1-.59,1.65,2.18,2.18,0,0,1-1.78.72H647v15.52H667.4a2.27,2.27,0,0,1,1.86.72,2.48,2.48,0,0,1,.6,1.62,2.56,2.56,0,0,1-.64,1.65,2.22,2.22,0,0,1-1.82.76H647v16.88h22.31a2.29,2.29,0,0,1,1.82.72,2.44,2.44,0,0,1,.64,1.65,2.51,2.51,0,0,1-.6,1.66,2.26,2.26,0,0,1-1.86.72Z"/><path class="cls-4" d="M681.73,256.07a3.33,3.33,0,0,1,.85-2.46,3.86,3.86,0,0,1,2.63-1.36,4.67,4.67,0,0,1,3.73,1.87l24.76,37.32V254.88a2.38,2.38,0,0,1,1.7-2.46,3.3,3.3,0,0,1,1-.17,3.24,3.24,0,0,1,1,.17,2.33,2.33,0,0,1,.85.51,2.36,2.36,0,0,1,.85,1.95V295a3.47,3.47,0,0,1-2.37,3.64,5.09,5.09,0,0,1-1.62.26,4.11,4.11,0,0,1-3.47-1.87l-24.43-36.8v36.13a1.89,1.89,0,0,1-.68,1.61,3.09,3.09,0,0,1-2.08.93,3,3,0,0,1-1.9-.64,2.21,2.21,0,0,1-.85-1.9Z"/></g></g></svg>